<svg id="Capa_1" enable-background="new 0 0 512 512" height="512" viewBox="0 0 512 512" width="512" xmlns="http://www.w3.org/2000/svg"><g><g><path d="m104.48 288.93c4.142 0 7.5-3.357 7.5-7.5v-249.69c0-9.23 7.51-16.74 16.74-16.74h254.56c9.23 0 16.74 7.51 16.74 16.74v55.24c0 4.143 3.358 7.5 7.5 7.5s7.5-3.357 7.5-7.5v-55.24c0-17.502-14.239-31.74-31.74-31.74h-254.56c-17.501 0-31.74 14.238-31.74 31.74v249.69c0 4.142 3.358 7.5 7.5 7.5z"/><path d="m415.02 121.98c0-4.143-3.358-7.5-7.5-7.5s-7.5 3.357-7.5 7.5v310.37h-288.04v-115.92c0-4.143-3.358-7.5-7.5-7.5s-7.5 3.357-7.5 7.5v163.83c0 17.502 14.239 31.74 31.74 31.74h197.94c4.142 0 7.5-3.357 7.5-7.5s-3.358-7.5-7.5-7.5h-197.94c-9.23 0-16.74-7.51-16.74-16.74v-32.91h288.04v32.91c0 9.23-7.51 16.74-16.74 16.74h-21.62c-4.142 0-7.5 3.357-7.5 7.5s3.358 7.5 7.5 7.5h21.62c17.501 0 31.74-14.238 31.74-31.74z"/><path d="m256 291.432c-16.111 0-29.218 13.107-29.218 29.219s13.107 29.219 29.218 29.219 29.218-13.107 29.218-29.219-13.107-29.219-29.218-29.219zm0 43.437c-7.84 0-14.218-6.379-14.218-14.219s6.378-14.219 14.218-14.219 14.218 6.379 14.218 14.219-6.378 14.219-14.218 14.219z"/><path d="m340.192 299.596c4.642-5.039 5.459-12.412 2.033-18.347l-8.99-15.57c-3.425-5.935-10.22-8.909-16.905-7.414l-17.01 3.817c-.16.035-.348-.016-.517-.139-4.161-3.036-8.659-5.635-13.371-7.724-.188-.084-.323-.22-.371-.374l-5.199-16.635c-2.043-6.54-8.02-10.935-14.872-10.935h-17.98c-6.852 0-12.829 4.395-14.872 10.934l-5.199 16.636c-.048.154-.184.29-.373.374-4.71 2.089-9.208 4.688-13.37 7.724-.169.123-.359.177-.515.139l-17.013-3.817c-6.688-1.5-13.479 1.479-16.904 7.413l-8.99 15.571c-3.426 5.935-2.609 13.308 2.033 18.347l11.813 12.826c.11.119.16.307.138.517-.274 2.563-.414 5.158-.414 7.712s.139 5.148.414 7.714c.022.208-.028.396-.138.515l-11.813 12.826c-4.642 5.039-5.459 12.412-2.033 18.347l8.99 15.57c3.425 5.934 10.219 8.91 16.905 7.414l17.01-3.817c.162-.033.347.016.518.14 4.166 3.039 8.664 5.638 13.367 7.722.189.084.326.221.374.375l5.199 16.635c2.043 6.54 8.02 10.935 14.872 10.935h17.98c6.852 0 12.829-4.395 14.872-10.934l5.199-16.636c.048-.154.185-.291.371-.374 4.706-2.085 9.205-4.684 13.373-7.725.168-.123.354-.174.513-.138l17.013 3.817c6.687 1.501 13.479-1.48 16.904-7.413l8.99-15.571c3.426-5.935 2.609-13.308-2.033-18.347l-11.813-12.826c-.11-.119-.16-.307-.138-.517.274-2.563.414-5.158.414-7.712s-.139-5.148-.414-7.714c-.022-.208.028-.396.138-.515zm-26.865 14.938c.218 2.036.329 4.094.329 6.116s-.11 4.08-.328 6.114c-.483 4.504.981 8.979 4.019 12.276l11.813 12.826c.173.188.204.463.076.685l-8.991 15.572c-.127.22-.382.33-.63.275l-17.015-3.817c-4.374-.981-8.982-.011-12.638 2.659-3.305 2.411-6.874 4.473-10.609 6.128-4.135 1.834-7.273 5.338-8.608 9.611l-5.199 16.637c-.076.243-.299.407-.555.407h-17.98c-.255 0-.479-.164-.555-.408l-5.199-16.636c-1.335-4.273-4.473-7.777-8.611-9.612-3.732-1.654-7.301-3.716-10.604-6.125-2.723-1.989-5.973-3.035-9.262-3.035-1.129 0-2.263.124-3.382.374l-17.011 3.817c-.25.06-.503-.054-.631-.276l-8.99-15.571c-.128-.222-.098-.496.076-.685l11.814-12.826c3.037-3.298 4.501-7.772 4.019-12.274-.218-2.036-.329-4.094-.329-6.116s.11-4.08.328-6.114c.483-4.504-.981-8.979-4.019-12.276l-11.813-12.826c-.173-.188-.204-.463-.076-.685l8.991-15.572c.127-.221.379-.334.63-.275l17.015 3.817c4.375.981 8.981.011 12.639-2.658 3.301-2.409 6.87-4.471 10.605-6.128 4.137-1.833 7.275-5.337 8.611-9.612l5.199-16.637c.076-.243.299-.407.555-.407h17.98c.255 0 .479.164.555.408l5.199 16.636c1.336 4.275 4.475 7.779 8.61 9.612 3.737 1.657 7.306 3.719 10.607 6.128 3.658 2.669 8.264 3.635 12.642 2.658l17.011-3.817c.25-.053.503.054.631.276l8.99 15.571c.128.222.098.496-.076.685l-11.814 12.826c-3.037 3.298-4.502 7.772-4.019 12.274z"/><path d="m289.558 56.569h-38.608c-4.142 0-7.5 3.357-7.5 7.5s3.358 7.5 7.5 7.5h38.608c4.142 0 7.5-3.357 7.5-7.5s-3.358-7.5-7.5-7.5z"/><path d="m180.238 71.569h38.386c4.142 0 7.5-3.357 7.5-7.5s-3.358-7.5-7.5-7.5h-38.386c-4.142 0-7.5 3.357-7.5 7.5s3.358 7.5 7.5 7.5z"/><path d="m180.238 103.895h86.995c4.142 0 7.5-3.357 7.5-7.5s-3.358-7.5-7.5-7.5h-86.995c-4.142 0-7.5 3.357-7.5 7.5s3.358 7.5 7.5 7.5z"/><path d="m292.058 96.395c0 4.143 3.358 7.5 7.5 7.5h32.204c4.142 0 7.5-3.357 7.5-7.5s-3.358-7.5-7.5-7.5h-32.204c-4.142 0-7.5 3.357-7.5 7.5z"/><path d="m180.238 136.22h36.366c4.142 0 7.5-3.357 7.5-7.5s-3.358-7.5-7.5-7.5h-36.366c-4.142 0-7.5 3.357-7.5 7.5s3.358 7.5 7.5 7.5z"/><path d="m267.233 121.22h-18.304c-4.142 0-7.5 3.357-7.5 7.5s3.358 7.5 7.5 7.5h18.304c4.142 0 7.5-3.357 7.5-7.5s-3.358-7.5-7.5-7.5z"/><path d="m331.762 121.22h-32.325c-4.142 0-7.5 3.357-7.5 7.5s3.358 7.5 7.5 7.5h32.325c4.142 0 7.5-3.357 7.5-7.5s-3.358-7.5-7.5-7.5z"/><path d="m180.238 168.545h86.995c4.142 0 7.5-3.357 7.5-7.5s-3.358-7.5-7.5-7.5h-86.995c-4.142 0-7.5 3.357-7.5 7.5s3.358 7.5 7.5 7.5z"/><path d="m331.651 153.545h-32.093c-4.142 0-7.5 3.357-7.5 7.5s3.358 7.5 7.5 7.5h32.093c4.142 0 7.5-3.357 7.5-7.5s-3.358-7.5-7.5-7.5z"/><path d="m180.238 200.87h15.152c4.142 0 7.5-3.357 7.5-7.5s-3.358-7.5-7.5-7.5h-15.152c-4.142 0-7.5 3.357-7.5 7.5s3.358 7.5 7.5 7.5z"/><path d="m331.651 185.87h-103.936c-4.142 0-7.5 3.357-7.5 7.5s3.358 7.5 7.5 7.5h103.936c4.142 0 7.5-3.357 7.5-7.5s-3.358-7.5-7.5-7.5z"/><path d="m331.651 71.569c4.142 0 7.5-3.357 7.5-7.5s-3.358-7.5-7.5-7.5h-9.99c-4.142 0-7.5 3.357-7.5 7.5s3.358 7.5 7.5 7.5z"/><path d="m151.267 33.117c-3.705-1.855-8.209-.351-10.062 3.354l-6.061 12.122c-1.056 2.112-1.056 4.597 0 6.709l6.061 12.122c1.314 2.628 3.962 4.147 6.714 4.147 1.127 0 2.271-.256 3.348-.794 3.705-1.853 5.207-6.357 3.354-10.062l-4.384-8.768 4.384-8.768c1.852-3.704.351-8.209-3.354-10.062z"/><path d="m360.733 200.078c1.077.539 2.221.794 3.348.794 2.751 0 5.4-1.52 6.714-4.147l6.061-12.122c1.056-2.112 1.056-4.597 0-6.709l-6.061-12.122c-1.853-3.704-6.356-5.205-10.062-3.354-3.705 1.853-5.207 6.357-3.354 10.062l4.384 8.768-4.384 8.768c-1.852 3.705-.351 8.21 3.354 10.062z"/></g></g></svg>