<svg id="Layer_1" enable-background="new 0 0 512 512" height="512" viewBox="0 0 512 512" width="512" xmlns="http://www.w3.org/2000/svg"><g><path d="m51.24 389.641c6.972-8.004 14.249-16.244 21.693-24.562 2.127-2.377 2.518-5.839.975-8.631-7.48-13.528-13.438-27.902-17.712-42.721-.884-3.064-3.608-5.234-6.791-5.411-11.168-.62-22.14-1.301-32.707-2.029-3.24-43.913-1.045-85.185.02-100.578 10.587-.73 21.553-1.41 32.687-2.027 3.183-.176 5.908-2.346 6.791-5.411 4.274-14.82 10.234-29.193 17.712-42.72 1.544-2.792 1.152-6.254-.975-8.631-7.444-8.318-14.726-16.563-21.704-24.574 28.76-33.343 59.495-60.974 71.133-71.106 8.003 6.971 16.242 14.248 24.559 21.691 2.377 2.127 5.839 2.519 8.631.975 13.527-7.479 27.901-13.438 42.721-17.711 3.064-.884 5.234-3.608 5.411-6.792.617-11.143 1.298-22.115 2.028-32.706 43.913-3.241 85.186-1.045 100.577.02.728 10.561 1.408 21.527 2.028 32.687.177 3.183 2.347 5.907 5.411 6.791 14.818 4.274 29.191 10.233 42.72 17.712 2.794 1.543 6.254 1.151 8.631-.975 8.32-7.446 16.564-14.727 24.574-21.703 10.882 9.384 22.069 19.761 33.327 30.914 7.296 6.745 17.368-3.429 10.557-10.657-13.232-13.11-26.387-25.184-39.098-35.888-2.821-2.377-6.952-2.348-9.741.067-8.336 7.216-16.962 14.799-25.699 22.586-11.539-6.02-23.607-11.024-36.001-14.926-.673-11.706-1.412-23.164-2.2-34.128-.263-3.664-3.142-6.599-6.8-6.932-.562-.05-56.909-5.065-115.955-.003-3.675.315-6.576 3.256-6.84 6.935-.791 10.991-1.529 22.449-2.201 34.129-12.394 3.902-24.463 8.905-36.001 14.926-8.74-7.79-17.366-15.371-25.699-22.587-2.777-2.403-6.888-2.445-9.711-.093-.434.361-43.823 36.659-81.994 81.991-2.376 2.822-2.348 6.953.067 9.741 7.219 8.337 14.801 16.963 22.587 25.699-6.02 11.537-11.024 23.606-14.926 36-11.677.671-23.134 1.41-34.128 2.2-3.664.263-6.599 3.142-6.932 6.8-.051.562-5.065 56.909-.003 115.955.315 3.676 3.256 6.576 6.935 6.84 10.964.789 22.421 1.527 34.129 2.201 3.902 12.393 8.906 24.462 14.926 36.001-7.79 8.74-15.371 17.366-22.587 25.7-2.405 2.777-2.444 6.887-.093 9.71.56.671 13.946 16.699 34.872 38.044 2.901 2.959 7.651 3.004 10.607.105 2.958-2.9 3.005-7.649.105-10.607-13.811-14.088-24.429-26.002-29.916-32.311z"/><path d="m509.74 198.042c-.315-3.676-3.256-6.576-6.935-6.84-10.996-.791-22.453-1.529-34.129-2.2-3.902-12.393-8.906-24.461-14.925-36 7.794-8.745 15.376-17.373 22.586-25.7 2.404-2.777 2.444-6.887.093-9.71-.272-.327-6.792-8.14-17.836-20.123-6.984-7.069-17.506 2.638-11.03 10.167 5.701 6.186 10.21 11.284 13.199 14.722-6.967 7.999-14.245 16.239-21.694 24.563-2.127 2.377-2.518 5.839-.975 8.63 7.479 13.528 13.437 27.901 17.711 42.72.883 3.064 3.608 5.234 6.791 5.411 11.139.618 22.112 1.299 32.706 2.029 3.24 43.914 1.045 85.185-.02 100.578-10.562.728-21.527 1.408-32.688 2.028-3.183.176-5.908 2.347-6.79 5.411-4.274 14.819-10.232 29.192-17.711 42.721-1.543 2.791-1.152 6.253.975 8.63 7.453 8.328 14.733 16.572 21.704 24.574-28.761 33.343-59.496 60.974-71.133 71.105-8.003-6.97-16.241-14.247-24.56-21.691-2.376-2.127-5.838-2.519-8.63-.975-13.528 7.479-27.901 13.437-42.72 17.711-3.064.884-5.234 3.608-5.411 6.791-.62 11.166-1.301 22.139-2.029 32.707-43.914 3.241-85.186 1.045-100.578-.02-.729-10.58-1.409-21.545-2.027-32.687-.177-3.184-2.347-5.908-5.411-6.792-14.82-4.274-29.193-10.233-42.721-17.711-2.792-1.544-6.254-1.152-8.631.975-8.324 7.45-16.569 14.731-24.574 21.704-5.908-5.096-11.931-10.505-17.967-16.137-3.029-2.826-7.774-2.663-10.601.367-2.826 3.029-2.662 7.774.367 10.601 7.891 7.364 15.77 14.363 23.416 20.801 2.821 2.376 6.951 2.347 9.741-.067 8.33-7.212 16.958-14.795 25.7-22.587 11.538 6.02 23.607 11.024 36.001 14.926.672 11.685 1.411 23.143 2.201 34.129.263 3.664 3.142 6.598 6.8 6.932.374.034 25.426 2.264 59.539 2.264 17.173 0 36.645-.565 56.416-2.26 3.675-.315 6.576-3.256 6.84-6.936.788-10.966 1.527-22.423 2.2-34.128 12.393-3.902 24.462-8.906 36.001-14.926 8.74 7.79 17.367 15.373 25.699 22.587 2.777 2.405 6.888 2.444 9.71.093.435-.361 43.822-36.66 81.995-81.99 2.376-2.821 2.348-6.952-.066-9.741-7.209-8.327-14.792-16.954-22.586-25.7 6.02-11.539 11.023-23.608 14.925-36.001 11.707-.673 23.165-1.412 34.129-2.201 3.664-.263 6.598-3.142 6.931-6.8.05-.562 5.063-56.908.002-115.954z"/><path d="m114.969 256c0 77.765 63.266 141.031 141.031 141.031 187.097-7.746 187.043-274.345-.001-282.063-77.764 0-141.03 63.267-141.03 141.032zm141.031-126.031c136.899 2.146 173.664 185.705 50.749 241.387 1.029-16.76 1.67-33.421 1.908-49.676.061-4.142-3.247-7.549-7.389-7.609-4.129-.065-7.553 3.246-7.61 7.39-.266 18.137-1.04 36.789-2.303 55.521-22.252 6.693-48.46 6.693-70.712 0-3.698-54.911-2.334-96.695-1.004-118.529 17.605 2.541 50.534 3.636 72.74.126.403 6.563.807 14.905 1.073 24.829.11 4.142 3.591 7.405 7.698 7.297 4.141-.11 7.409-3.557 7.297-7.698-.728-27.231-2.443-42.543-2.515-43.181-.188-1.647-.914-3.184-2.068-4.374-23.756-24.499-40.803-63.866-40.972-64.258-1.181-2.758-3.892-4.545-6.892-4.546-.001 0-.002 0-.002 0-2.999 0-5.711 1.788-6.893 4.544-.17.395-17.217 39.762-40.973 64.26-1.154 1.19-1.881 2.728-2.069 4.374-.247 2.171-5.724 51.82-.817 131.528-122.984-55.743-86.048-239.273 50.754-241.385zm0 96.423c6.371 0 12.536-1.399 18.167-4.09 5.015 7.345 10.65 14.707 16.781 21.328-28.537 4.101-56.932 1.504-69.781-.126 6.087-6.588 11.682-13.903 16.666-21.202 5.631 2.69 11.796 4.09 18.167 4.09zm-9.984-16.883c3.967-6.603 7.329-12.803 9.984-17.979 2.655 5.176 6.017 11.375 9.984 17.979-6.25 2.503-13.718 2.503-19.968 0z"/><path d="m256 428.425c95.076 0 172.425-77.35 172.425-172.425 1.478-124.025-132.84-209.888-244.673-156.602-3.761 1.737-5.4 6.194-3.662 9.955 1.737 3.761 6.196 5.401 9.955 3.662 102.101-48.63 224.735 29.75 223.379 142.987.001 86.802-70.619 157.422-157.423 157.422-148.65-.135-214.146-189.831-97.083-281.357 3.257-2.556 3.826-7.271 1.269-10.53-2.557-3.26-7.272-3.828-10.531-1.272-128.24 100.277-56.412 308.041 106.344 308.16z"/><path d="m256.022 281.501c-4.143 0-7.501 3.358-7.501 7.501v65.138c.344 9.931 14.661 9.924 15.001 0v-65.138c.001-4.142-3.357-7.501-7.5-7.501z"/></g></svg>